{
  "accessors": [
    {
      "bufferView": 2,
      "componentType": 5126,
      "count": 810,
      "max": [
        0.96650630235672,
        4.147665023803711,
        0.9665118455886841
      ],
      "min": [
        -0.96650630235672,
        -4.0677056312561035,
        -1.2614693641662598
      ],
      "type": "VEC3"
    },
    {
      "bufferView": 2,
      "byteOffset": 9720,
      "componentType": 5126,
      "count": 810,
      "max": [
        0.9999998211860657,
        0.9975791573524475,
        1.0
      ],
      "min": [
        -0.9999997615814209,
        -0.9996849298477173,
        -0.9999393224716187
      ],
      "type": "VEC3"
    },
    {
      "bufferView": 1,
      "componentType": 5126,
      "count": 810,
      "max": [
        1.0,
        0.9801962971687317
      ],
      "min": [
        0.0,
        0.0
      ],
      "type": "VEC2"
    },
    {
      "bufferView": 0,
      "componentType": 5125,
      "count": 4464,
      "type": "SCALAR"
    }
  ],
  "asset": {
    "extras": {
      "author": "iyodjung (https://sketchfab.com/iyodjung)",
      "license": "CC-BY-4.0 (http://creativecommons.org/licenses/by/4.0/)",
      "source": "https://sketchfab.com/3d-models/low-poly-sausage-96b53d18fae64d428cc8a4098be30700",
      "title": "Low Poly Sausage"
    },
    "generator": "Sketchfab-12.68.0",
    "version": "2.0"
  },
  "bufferViews": [
    {
      "buffer": 0,
      "byteLength": 17856,
      "name": "floatBufferViews",
      "target": 34963
    },
    {
      "buffer": 0,
      "byteLength": 6480,
      "byteOffset": 17856,
      "byteStride": 8,
      "name": "floatBufferViews",
      "target": 34962
    },
    {
      "buffer": 0,
      "byteLength": 19440,
      "byteOffset": 24336,
      "byteStride": 12,
      "name": "floatBufferViews",
      "target": 34962
    }
  ],
  "buffers": [
    {
      "byteLength": 43776,
      "uri": "scene.bin"
    }
  ],
  "images": [
    {
      "uri": "textures/lambert2_baseColor.png"
    }
  ],
  "materials": [
    {
      "doubleSided": true,
      "name": "lambert2",
      "pbrMetallicRoughness": {
        "baseColorTexture": {
          "index": 0
        },
        "metallicFactor": 0.0,
        "roughnessFactor": 0.6
      }
    }
  ],
  "meshes": [
    {
      "name": "pCylinder1_lambert2_0",
      "primitives": [
        {
          "attributes": {
            "NORMAL": 1,
            "POSITION": 0,
            "TEXCOORD_0": 2
          },
          "indices": 3,
          "material": 0,
          "mode": 4
        }
      ]
    }
  ],
  "nodes": [
    {
      "children": [
        1
      ],
      "matrix": [
        0.7607162594795227,
        -3.049379887655259e-16,
        0.6490845680236816,
        0.0,
        0.6490845680236816,
        8.100679000405306e-18,
        -0.7607162594795227,
        0.0,
        2.267132652418398e-16,
        1.0,
        2.040928549930809e-16,
        0.0,
        0.025946736335754395,
        -4.462130502531226e-16,
        0.009564926847815514,
        1.0
      ],
      "name": "Sketchfab_model"
    },
    {
      "children": [
        2
      ],
      "matrix": [
        1.0,
        0.0,
        0.0,
        0.0,
        0.0,
        0.0,
        1.0,
        0.0,
        0.0,
        -1.0,
        0.0,
        0.0,
        0.0,
        0.0,
        0.0,
        1.0
      ],
      "name": "07f8a55449b14e3ca5ff5c84af1bfaac.fbx"
    },
    {
      "children": [
        3
      ],
      "name": "RootNode"
    },
    {
      "children": [
        4
      ],
      "matrix": [
        1.0,
        0.0,
        0.0,
        0.0,
        0.0,
        2.220446049250313e-16,
        1.0,
        0.0,
        0.0,
        -1.0,
        2.220446049250313e-16,
        0.0,
        0.0,
        1.0460755825042725,
        0.0,
        1.0
      ],
      "name": "pCylinder1"
    },
    {
      "mesh": 0,
      "name": "pCylinder1_lambert2_0"
    }
  ],
  "samplers": [
    {
      "magFilter": 9729,
      "minFilter": 9987,
      "wrapS": 10497,
      "wrapT": 10497
    }
  ],
  "scene": 0,
  "scenes": [
    {
      "name": "Sketchfab_Scene",
      "nodes": [
        0
      ]
    }
  ],
  "textures": [
    {
      "sampler": 0,
      "source": 0
    }
  ]
}
