{
  "accessors": [
    {
      "bufferView": 2,
      "componentType": 5126,
      "count": 63429,
      "max": [
        0.8476967215538025,
        1.5889908075332642,
        1.2444947957992554
      ],
      "min": [
        -0.8476966619491577,
        -0.972049355506897,
        0.005353331565856934
      ],
      "type": "VEC3"
    },
    {
      "bufferView": 2,
      "byteOffset": 761148,
      "componentType": 5126,
      "count": 63429,
      "max": [
        0.9996076226234436,
        0.9999950528144836,
        0.9999980330467224
      ],
      "min": [
        -0.9996076822280884,
        -0.9999940395355225,
        -0.9999787211418152
      ],
      "type": "VEC3"
    },
    {
      "bufferView": 3,
      "componentType": 5126,
      "count": 63429,
      "max": [
        1.0,
        0.9998268485069275,
        0.999767541885376,
        1.0
      ],
      "min": [
        -0.9999994039535522,
        -0.9999708533287048,
        -0.9999161958694458,
        -1.0
      ],
      "type": "VEC4"
    },
    {
      "bufferView": 1,
      "componentType": 5126,
      "count": 63429,
      "max": [
        1.9942286014556885,
        0.9956475496292114
      ],
      "min": [
        0.0030518246348947287,
        0.0030494024977087975
      ],
      "type": "VEC2"
    },
    {
      "bufferView": 1,
      "byteOffset": 507432,
      "componentType": 5126,
      "count": 63429,
      "max": [
        1.9942286014556885,
        0.9956475496292114
      ],
      "min": [
        0.0030518246348947287,
        0.0030494024977087975
      ],
      "type": "VEC2"
    },
    {
      "bufferView": 0,
      "componentType": 5125,
      "count": 279492,
      "type": "SCALAR"
    }
  ],
  "asset": {
    "extras": {
      "author": "Michal Cavrnoch (https://sketchfab.com/MichalCavrnoch)",
      "license": "CC-BY-NC-4.0 (http://creativecommons.org/licenses/by-nc/4.0/)",
      "source": "https://sketchfab.com/3d-models/winged-helmet-77f5021d9755433e94939fe3ea35af52",
      "title": "Winged helmet"
    },
    "generator": "Sketchfab-13.35.0",
    "version": "2.0"
  },
  "bufferViews": [
    {
      "buffer": 0,
      "byteLength": 1117968,
      "name": "floatBufferViews",
      "target": 34963
    },
    {
      "buffer": 0,
      "byteLength": 1014864,
      "byteOffset": 1117968,
      "byteStride": 8,
      "name": "floatBufferViews",
      "target": 34962
    },
    {
      "buffer": 0,
      "byteLength": 1522296,
      "byteOffset": 2132832,
      "byteStride": 12,
      "name": "floatBufferViews",
      "target": 34962
    },
    {
      "buffer": 0,
      "byteLength": 1014864,
      "byteOffset": 3655128,
      "byteStride": 16,
      "name": "floatBufferViews",
      "target": 34962
    }
  ],
  "buffers": [
    {
      "byteLength": 4669992,
      "uri": "scene.bin"
    }
  ],
  "images": [
    {
      "uri": "textures/malenia_helmet_baseColor.png"
    },
    {
      "uri": "textures/malenia_helmet_metallicRoughness.png"
    },
    {
      "uri": "textures/malenia_helmet_normal.png"
    }
  ],
  "materials": [
    {
      "doubleSided": true,
      "name": "malenia_helmet",
      "normalTexture": {
        "index": 2
      },
      "occlusionTexture": {
        "index": 1
      },
      "pbrMetallicRoughness": {
        "baseColorTexture": {
          "index": 0
        },
        "metallicRoughnessTexture": {
          "index": 1
        }
      }
    }
  ],
  "meshes": [
    {
      "name": "helmet_malenia_helmet_0",
      "primitives": [
        {
          "attributes": {
            "NORMAL": 1,
            "POSITION": 0,
            "TANGENT": 2,
            "TEXCOORD_0": 3,
            "TEXCOORD_1": 4
          },
          "indices": 5,
          "material": 0,
          "mode": 4
        }
      ]
    }
  ],
  "nodes": [
    {
      "children": [
        1
      ],
      "matrix": [
        1.0,
        0.0,
        0.0,
        0.0,
        0.0,
        2.220446049250313e-16,
        -1.0,
        0.0,
        0.0,
        1.0,
        2.220446049250313e-16,
        0.0,
        0.0,
        0.0,
        0.0,
        1.0
      ],
      "name": "Sketchfab_model"
    },
    {
      "children": [
        2
      ],
      "matrix": [
        0.009999999776482582,
        0.0,
        0.0,
        0.0,
        0.0,
        0.0,
        0.009999999776482582,
        0.0,
        0.0,
        -0.009999999776482582,
        0.0,
        0.0,
        0.0,
        0.0,
        0.0,
        1.0
      ],
      "name": "model.fbx"
    },
    {
      "children": [
        3
      ],
      "name": "RootNode"
    },
    {
      "children": [
        4
      ],
      "matrix": [
        100.0,
        0.0,
        0.0,
        0.0,
        0.0,
        -1.629206793918314e-05,
        -99.99999999999868,
        0.0,
        0.0,
        99.99999999999868,
        -1.629206793918314e-05,
        0.0,
        0.0,
        0.0,
        0.0,
        1.0
      ],
      "name": "helmet"
    },
    {
      "mesh": 0,
      "name": "helmet_malenia_helmet_0"
    }
  ],
  "samplers": [
    {
      "magFilter": 9729,
      "minFilter": 9987,
      "wrapS": 10497,
      "wrapT": 10497
    }
  ],
  "scene": 0,
  "scenes": [
    {
      "name": "Sketchfab_Scene",
      "nodes": [
        0
      ]
    }
  ],
  "textures": [
    {
      "sampler": 0,
      "source": 0
    },
    {
      "sampler": 0,
      "source": 1
    },
    {
      "sampler": 0,
      "source": 2
    }
  ]
}
